<svg xmlns="http://www.w3.org/2000/svg" width="88.855" height="90.158" viewBox="0 0 88.855 90.158">
  <g id="Group_13976" data-name="Group 13976" transform="translate(-14.428 41.574) rotate(-42)">
    <g id="Group_12484" data-name="Group 12484" transform="translate(0)">
      <path id="Path_25269" data-name="Path 25269" d="M238.294,179.674a26.186,26.186,0,0,1-11.58,21.747V210H197.185v-8.754a26.213,26.213,0,1,1,41.109-21.568Z" transform="translate(-169.661 -134.505)" fill="none" stroke="#029b97" stroke-miterlimit="10" stroke-width="2.5"/>
      <path id="Path_25270" data-name="Path 25270" d="M150.928,421.928h30.1V424h-30.1Z" transform="translate(-123.565 -340.186)" fill="#029b97"/>
      <path id="Path_25271" data-name="Path 25271" d="M150.928,421.928h30.1V424h-30.1Z" transform="translate(-123.565 -333.982)" fill="#029b97"/>
      <line id="Line_60" data-name="Line 60" y1="4.136" x2="12.407" transform="translate(0 50.318)" fill="none" stroke="#029b97" stroke-width="2.5"/>
      <line id="Line_62" data-name="Line 62" x1="12.407" y1="4.136" transform="translate(0 29.639)" fill="none" stroke="#029b97" stroke-width="2.5"/>
      <line id="Line_64" data-name="Line 64" x1="8.271" y1="9.65" transform="translate(12.407 9.65)" fill="none" stroke="#029b97" stroke-width="2.5"/>
      <line id="Line_66" data-name="Line 66" y1="12.407" transform="translate(42.736)" fill="none" stroke="#029b97" stroke-width="2.5"/>
      <line id="Line_65" data-name="Line 65" y1="9.65" x2="8.271" transform="translate(62.725 9.65)" fill="none" stroke="#029b97" stroke-width="2.5"/>
      <line id="Line_63" data-name="Line 63" x1="12.407" y2="4.136" transform="translate(72.375 29.639)" fill="none" stroke="#029b97" stroke-width="2.5"/>
      <line id="Line_61" data-name="Line 61" x1="12.407" y1="4.136" transform="translate(72.375 52.386)" fill="none" stroke="#029b97" stroke-width="2.5"/>
    </g>
    <path id="Path_25283" data-name="Path 25283" d="M21667.84,2170.749l15.082-11.524h-21.43l21.43-14.036Z" transform="translate(-21630.486 -2110.25)" fill="#029b97"/>
  </g>
</svg>
