<svg xmlns="http://www.w3.org/2000/svg" xmlns:xlink="http://www.w3.org/1999/xlink" width="578.483" height="456.898" viewBox="0 0 578.483 456.898"><defs><style>.a,.c{fill:#34925f;}.b,.d,.e{fill:#69d59b;}.c{stroke:#34925f;}.d{font-size:20px;font-family:ProductSans-Light, Product Sans Light;font-weight:300;text-decoration:line-through;}.e{stroke:#69d59b;}.f{fill:url(#a);}.g,.h{fill:#fff;}.h,.n,.o{stroke:#fff;}.i,.m{fill:orange;}.j{fill:#ebebeb;}.k{fill:#285173;}.l,.o,.q{fill:none;}.l{stroke:#000;}.l,.m,.n,.o{stroke-linecap:round;stroke-linejoin:round;stroke-width:2px;}.m{stroke:orange;}.n{fill:rgba(0,0,0,0);}.p{stroke:none;}.r{filter:url(#f);}.s{filter:url(#d);}.t{filter:url(#b);}</style><radialGradient id="a" cx="0.363" cy="0.206" r="0.538" gradientTransform="translate(0)" gradientUnits="objectBoundingBox"><stop offset="0" stop-color="#2dafab"/><stop offset="0.494" stop-color="#36d6cc"/><stop offset="1" stop-color="#029b97"/></radialGradient><filter id="b" x="294.91" y="191.511" width="202.117" height="203.249" filterUnits="userSpaceOnUse"><feOffset dy="3" input="SourceAlpha"/><feGaussianBlur stdDeviation="3" result="c"/><feFlood flood-color="#878787" flood-opacity="0.161"/><feComposite operator="in" in2="c"/><feComposite in="SourceGraphic"/></filter><filter id="d" x="274.992" y="0" width="208.919" height="228.697" filterUnits="userSpaceOnUse"><feOffset dy="3" input="SourceAlpha"/><feGaussianBlur stdDeviation="3" result="e"/><feFlood flood-color="#878787" flood-opacity="0.161"/><feComposite operator="in" in2="e"/><feComposite in="SourceGraphic"/></filter><filter id="f" x="40.093" y="40.928" width="187.094" height="408.553" filterUnits="userSpaceOnUse"><feOffset dy="3" input="SourceAlpha"/><feGaussianBlur stdDeviation="3" result="g"/><feFlood flood-color="#878787" flood-opacity="0.161"/><feComposite operator="in" in2="g"/><feComposite in="SourceGraphic"/></filter></defs><g transform="translate(-640.407 -2763.179)"><g transform="translate(-8 -135)"><path class="a" d="M712.407-6696.47s18.8,7.841,31.577-6.605,42.228-7.223,42.228-7.223l6.93,28.225s-22.682-7.334-32.683,1.556-31.432,17.388-38.571,12.569S712.407-6696.47,712.407-6696.47Z" transform="translate(-64 9899)"/><path class="b" d="M712.868-6697.787s16.792,4.439,28.495-7.1,38.671-5.771,38.671-5.771l4.579,22.2s-19.844-7.1-29,0-27.945,15.491-34.482,11.64S712.868-6697.787,712.868-6697.787Z" transform="translate(291.479 9933.134) rotate(-3)"/><g class="c" transform="matrix(0.951, -0.309, 0.309, 0.951, 674.595, 3197.499)"><ellipse class="p" cx="11.5" cy="13" rx="11.5" ry="13"/><ellipse class="q" cx="11.5" cy="13" rx="11" ry="12.5"/></g><g transform="translate(12 23)"><text class="d" transform="matrix(0.951, -0.309, 0.309, 0.951, 672.506, 3191.82)"><tspan x="0" y="0">N</tspan></text><g class="e" transform="matrix(0.951, -0.309, 0.309, 0.951, 670, 3184.188)"><rect class="p" width="14" height="1"/><rect class="q" x="0.5" y="0.5" width="13"/></g></g></g><g transform="translate(441 -366)"><path class="a" d="M712.407-6696.47s18.8,7.841,31.577-6.605,42.228-7.223,42.228-7.223l6.93,28.225s-22.682-7.334-32.683,1.556-31.432,17.388-38.571,12.569S712.407-6696.47,712.407-6696.47Z" transform="translate(-64 9899)"/><path class="b" d="M712.868-6697.787s16.792,4.439,28.495-7.1,38.671-5.771,38.671-5.771l4.579,22.2s-19.844-7.1-29,0-27.945,15.491-34.482,11.64S712.868-6697.787,712.868-6697.787Z" transform="translate(291.479 9933.134) rotate(-3)"/><g class="c" transform="matrix(0.951, -0.309, 0.309, 0.951, 674.595, 3197.499)"><ellipse class="p" cx="11.5" cy="13" rx="11.5" ry="13"/><ellipse class="q" cx="11.5" cy="13" rx="11" ry="12.5"/></g><g transform="translate(12 23)"><text class="d" transform="matrix(0.951, -0.309, 0.309, 0.951, 672.506, 3191.82)"><tspan x="0" y="0">N</tspan></text><g class="e" transform="matrix(0.951, -0.309, 0.309, 0.951, 670, 3184.188)"><rect class="p" width="14" height="1"/><rect class="q" x="0.5" y="0.5" width="13"/></g></g></g><g transform="translate(471 -135)"><path class="a" d="M712.407-6696.47s18.8,7.841,31.577-6.605,42.228-7.223,42.228-7.223l6.93,28.225s-22.682-7.334-32.683,1.556-31.432,17.388-38.571,12.569S712.407-6696.47,712.407-6696.47Z" transform="translate(-64 9899)"/><path class="b" d="M712.868-6697.787s16.792,4.439,28.495-7.1,38.671-5.771,38.671-5.771l4.579,22.2s-19.844-7.1-29,0-27.945,15.491-34.482,11.64S712.868-6697.787,712.868-6697.787Z" transform="translate(291.479 9933.134) rotate(-3)"/><g class="c" transform="matrix(0.951, -0.309, 0.309, 0.951, 674.595, 3197.499)"><ellipse class="p" cx="11.5" cy="13" rx="11.5" ry="13"/><ellipse class="q" cx="11.5" cy="13" rx="11" ry="12.5"/></g><g transform="translate(12 23)"><text class="d" transform="matrix(0.951, -0.309, 0.309, 0.951, 672.506, 3191.82)"><tspan x="0" y="0">N</tspan></text><g class="e" transform="matrix(0.951, -0.309, 0.309, 0.951, 670, 3184.188)"><rect class="p" width="14" height="1"/><rect class="q" x="0.5" y="0.5" width="13"/></g></g></g><g transform="translate(-19.11 1348)"><g transform="translate(709.11 1421.114)"><g transform="translate(0)"><path class="f" d="M437.889,218.939c0,120.922-98.024,218.947-218.947,218.947S0,339.862,0,218.939,98.028,0,218.943,0,437.889,98.028,437.889,218.939Z" transform="translate(0)"/><path class="g" d="M768.676,189.823s-6.086,1.047-6.086,5.079,2.032,11.121,2.032,11.121l2.021,7.6,5.918,5.061,2.2-3s2.373-2.135,4.559-2.4c7.54-.9,7.595-3.116,7.595-3.116l6.591-3.64s2.531-5.054,0-6.573-9.847-6.083-10.492-6.083-4.193-9.62-4.193-9.62l-7.43-10.133s-5.251,4.211-4.237,6.914,2.53,3.721,2.025,6.255Z" transform="translate(-483.33 -110.357)"/><g class="t" transform="matrix(1, 0, 0, 1, -49.59, -5.93)"><path class="h" d="M877.3,525.39a51.8,51.8,0,0,1-12.451,5.182c-15.274,4.669-19.515,6.365-36.488,9.338s-35.642-4.669-50.491,4.665-17.545,9.6-17.545,9.6l-7.214,1.421s-19.456-3.1-22.624-.15c-2.758,2.563.71.15-12.022,15.424s-8.423,8.935-12.729,15.274c-9.4,13.824-11.88,7.635-8.489,20.364s17.823,24.612,17.823,24.612,22.06,1.7,26.308,3.391,35.638,3.823,35.638,3.823,22.477,32.247,26.732,39.033,4.567,13.96,7.657,26.311c.509,2.025.916,3.732,1.245,5.16a218.224,218.224,0,0,0,66.282-156.923A220.439,220.439,0,0,0,877.3,525.39Z" transform="translate(-391.41 -327.06)"/></g><g class="s" transform="matrix(1, 0, 0, 1, -49.59, -5.93)"><path class="h" d="M789.439,191.831c2.029,4.566,3.552-11.162,9.642-11.667s.509-4.57-6.09-8.28-11.165-19.119-15.219-24.195,6.094-16.241,16.241-20.632,8.119,5.416,12.674,9.972-1.007,8.628,3.047,16.479,4.57,9.393,9.071,6.855-1.937-5.372-2.644-14.2c-.333-4.237-.333-8.624,6.258-3.149,6.46,5.35,9.521,24.136,8.2,1.465C801.6,65.4,728.254,7.732,640.7,1.54l32.995,16.611,18.134,7.361s26.648,3.4,29.475,5.665,2.834,9.074,5.672,10.554,14.168,12.125,29.472,16.091c8.961,2.325,12.286,11.869,13.505,19.361-3.006,1.531-4.361,5.925-4.361,7.58,0,2.032,2.538,4.574,2.029,7.225s-7.1,1.915-11.667.619-2.029-.227-4.57,0-6.592,3.318-10.144,7.976-11.165,4.482-17.255,5.526-4.566-2.563-12.681,0-11.671,20.265-8.606,27.875,1.516,12.187-.516,19.537-4.874,10.547-5.573,32.742c-1.179,37.03,15.219,21.8,25.374,23.334s8.624-3.552,10.645-7.617-4.567-14.707-5.068-24.352-1.022-11.674,0-14.282,5.577-7.544,9.635-12.121,14.718-5.065,18.273-5.065,24.356,20.3,30.947,29.424S787.406,187.272,789.439,191.831Z" transform="translate(-356.48 4.96)"/></g><g class="r" transform="matrix(1, 0, 0, 1, -49.59, -5.93)"><path class="h" d="M23.316,192.211a4.357,4.357,0,0,0-.117.732c-.538,7.712-3.779,16.175-8.166,25.594-3.592,7.734-4.317,10.191-6.592,12.817a4.394,4.394,0,0,0-.549.82A219.213,219.213,0,0,0,0,290.59c0,4.339.139,8.642.392,12.916a4.211,4.211,0,0,0,.82,1.619l2.373,2.893a4.226,4.226,0,0,0,3.127,1.556c2.468.059,6.54.754,6.046,4.761-.7,5.7,3.219,11.718,3.032,14.172s5.987,3.076,5.6,12.718a50.873,50.873,0,0,0,1.165,14.212,4.255,4.255,0,0,1,.132,1.392c-.172,2.289-.718,9.474-1.175,15.545-.553,7.324,2.4,11.66,4.6,15.109,2.069,3.226,2.864,4.2,2.93,11.469a4.226,4.226,0,0,0,.117.883A219.409,219.409,0,0,0,164.119,502.616a12.044,12.044,0,0,0,1.348-4.105v-.04c.165-2.139,1.465-12.085,1.754-14.15a3.366,3.366,0,0,0,.037-.732c-.1-2.139-.531-12.993.476-16.611,1.1-4.028-2.018-5.859-9.276-18.705s.059-11.473,1.465-19.566.809-10.594,2.809-15.38,0,0-1.337-4.2-21.4-24.041-26.256-32.3-8.844-2.307-16.113-3.662,0,0-16.431-2.3c-8.232-1.146-8.569,1.154-11.316.648-3.6-.659-6.621.71-12.33-.93s-13.707,6.881-18.442,4.211-5.336-4.186-7.481-6.152-9.133-2.607-11.964-10.9.15-6.958-2-14.282-1.4-8.525-2.164-9.389-5.973-4.977-2.812-14.388c1.465-4.376-1.293-1.941-.549-11.718s7.8-2.966,11.4-7.181,8.364-2.27,12.93-8.478,13.549-5.548,21.291-13.1,15.19-8.086,15.886-9.693l24.169-18.043c.117-.092.227-.183.333-.282,1.143-1.066,7.082-7.207.908-14.377-6.778-7.884,3.094-8.371-6.778-7.884a24.312,24.312,0,0,0-12.451,4.325,4.252,4.252,0,0,1-6.1-1.381,56.7,56.7,0,0,0-3.127-4.991c-2.021-2.805-6.782-9.29-8.536-11.682a4.2,4.2,0,0,0-1.692-1.355c-1.736-.78-5.233-2.3-7.386-3.01a4.31,4.31,0,0,1-2.71-2.615c-.615-1.736-1.208-3.468-1.736-5.152a4.252,4.252,0,0,1,2.054-5.039l19.291-10.283a4.233,4.233,0,0,1,5.672,1.611c1.608,2.8,4.208,6.592,7.547,8.954,4.779,3.376,13.267,4.794,16.2,5.193a4.2,4.2,0,0,0,1.89-.194c1.553-.5,4.72-1.26,5.255.78,1.908,7.177,6.888,12.231,10.759,15.223a4.252,4.252,0,0,0,6.665-2.175l6.456-21.95a4.259,4.259,0,0,1,.666-1.333L165.723,175.8a11.477,11.477,0,0,0,1.241-11.532l-2.391-5.306a9.133,9.133,0,0,0-7.632-5.346l-6.822-.513-26.055-.586a4.241,4.241,0,0,1-3.248-1.637c-1.3-1.648-3.86-3.431-7.5.956l-4,4.826a4.23,4.23,0,0,1-3.636,1.527L87.62,156.628a4.116,4.116,0,0,1-.941-.183c-1.278-.417-4.984-1.608-7.4-2.23a4.255,4.255,0,0,1-2.585-1.977c-.732-1.194-2.043-2.622-2.084-3.959-.289-16.9,12.656-31.533,16.215-35.228a219.862,219.862,0,0,0-67.505,79.161Z" transform="translate(49.59 -65.72)"/></g><path class="i" d="M778.94,807.443a20.092,20.092,0,1,0-40.185,0c0,.366,0,.762.035,1.143h-.033c0,15.3,20.093,39.267,20.093,39.267s20.09-23.971,20.09-39.267H778.9C778.925,808.2,778.94,807.828,778.94,807.443Zm-20.09,13.015a13.015,13.015,0,1,1,13.015-13.015A13.015,13.015,0,0,1,758.85,820.458Z" transform="translate(-468.224 -499.023)"/><path class="i" d="M1035.5,324.633a20.092,20.092,0,1,0-40.185,0c0,.366,0,.765.038,1.143h-.037c0,15.3,20.093,39.267,20.093,39.267s20.09-23.971,20.09-39.267h-.018Q1035.5,325.216,1035.5,324.633Zm-20.09,13.033a13.015,13.015,0,1,1,13.015-13.015A13.015,13.015,0,0,1,1015.41,337.666Z" transform="translate(-630.832 -193.018)"/><path class="i" d="M887.91,478.223a20.092,20.092,0,1,0-40.185,0c0,.385,0,.765.035,1.143h-.033c0,15.3,20.093,39.267,20.093,39.267s20.09-23.971,20.09-39.267h-.033C887.9,479,887.91,478.622,887.91,478.223Zm-20.09,13.033a13.018,13.018,0,1,1,13.015-13.033,13.018,13.018,0,0,1-13.015,13.033Z" transform="translate(-537.289 -290.363)"/><path class="i" d="M45.2,332.424a20.1,20.1,0,1,0-40.2,0q0,.575.033,1.143H5c0,15.3,20.1,39.267,20.1,39.267S45.2,348.862,45.2,333.566h-.037C45.183,333.189,45.2,332.808,45.2,332.424ZM25.1,345.439a13.015,13.015,0,1,1,13.018-13.016A13.015,13.015,0,0,1,25.1,345.439Z" transform="translate(-3.169 -197.952)"/><path class="j" d="M907.168,1117.647c-.135-.026-3.391-.67-8.818-2.274l.428-1.443c5.35,1.578,8.646,2.23,8.679,2.238Z" transform="translate(-569.375 -706.01)"/><path class="j" d="M496.82,469.73a175.725,175.725,0,0,1-16.8-8.056l.732-1.322a173.619,173.619,0,0,0,16.644,7.987Zm-32.592-17.969a140.2,140.2,0,0,1-14.439-11.8l1.029-1.1A138.956,138.956,0,0,0,465.1,450.538Zm-27.073-25.535A116.222,116.222,0,0,1,426.813,410.7l1.318-.732A114.79,114.79,0,0,0,438.338,425.3ZM419.134,393.7a120.425,120.425,0,0,1-4.867-18.013l1.465-.282a119.218,119.218,0,0,0,4.8,17.775Zm-6.8-36.554c-.1-2.673-.154-5.559-.154-8.573,0-3.113.051-6.394.161-10.03l1.505.044c-.106,3.622-.161,6.888-.161,9.986,0,3,.051,5.859.154,8.518Zm2.351-37.081-1.505-.084c.161-2.93.337-5.907.509-8.913q.282-4.761.553-9.616l1.505.084q-.271,4.863-.553,9.62Q414.934,315.663,414.689,320.069Zm1.934-37.078-1.505-.055c.227-6.43.337-12.246.337-17.772v-.754h1.509v.758C416.963,270.709,416.849,276.542,416.622,282.991Zm-1.688-37.1c-.366-6.423-.948-12.623-1.721-18.431l1.494-.2c.78,5.841,1.362,12.085,1.732,18.541Zm-5.021-36.62a152.937,152.937,0,0,0-5.259-17.684l1.417-.52a154.534,154.534,0,0,1,5.306,17.86ZM397.1,174.787a117.249,117.249,0,0,0-9.983-15.461l1.2-.915a118.389,118.389,0,0,1,10.111,15.659Zm-22.3-29.127a124.789,124.789,0,0,0-14.282-11.608l.861-1.234a126.025,126.025,0,0,1,14.458,11.748Zm-30.058-21.13a170.681,170.681,0,0,0-16.812-7.595l.549-1.4a171.961,171.961,0,0,1,16.959,7.661Zm-34.287-13.491c-5.705-1.655-11.74-3.157-17.944-4.464l.311-1.465c6.225,1.315,12.3,2.827,18.039,4.49Z" transform="translate(-185.393 -66.619)"/><path class="j" d="M226.726,95.459c-2.93-.432-5.921-.835-8.946-1.2l.179-1.5c3.039.366,6.061.776,8.987,1.208Z" transform="translate(-138.029 -58.791)"/><path class="j" d="M184.473,1116.049c0-.033-1.26-3.189-2.963-8.6l1.439-.45c1.681,5.347,2.911,8.463,2.93,8.492Z" transform="translate(-115.041 -701.618)"/><path class="j" d="M158.786,507.848c-1.359-5.954-2.494-11.975-3.369-17.9l1.49-.22c.872,5.885,2,11.865,3.347,17.779Zm-5.27-36.008c-.234-3.86-.366-7.712-.366-11.458,0-2.27.044-4.548.128-6.764l1.509.059c-.088,2.2-.128,4.453-.128,6.705,0,3.713.117,7.536.348,11.352Zm3-36.14-1.49-.231a135.128,135.128,0,0,1,4-17.8l1.443.432a133.22,133.22,0,0,0-3.955,17.6Zm10.426-34.423-1.359-.652a108.177,108.177,0,0,1,9.232-15.747l1.23.868a107.113,107.113,0,0,0-9.1,15.549Zm20.716-29.259-1.066-1.066a114.467,114.467,0,0,1,13.916-11.788l.879,1.223a113.217,113.217,0,0,0-13.729,11.649Zm29.076-21.075-.7-1.337a154.26,154.26,0,0,1,16.618-7.463l.538,1.41a151.922,151.922,0,0,0-16.453,7.408Zm33.635-13.026-.436-1.443c5.9-1.772,11.718-3.574,17.325-5.35l.454,1.439c-5.606,1.794-11.444,3.6-17.343,5.372Zm34.6-10.986-.48-1.428c5.859-1.963,11.616-3.959,17.131-5.929l.505,1.421c-5.522,2-11.294,4-17.156,5.958ZM319.155,314.7l-.538-1.392c5.775-2.2,11.436-4.471,16.845-6.709l.579,1.392c-5.423,2.248-11.1,4.512-16.885,6.731Zm33.518-13.927-.623-1.37c5.672-2.563,11.169-5.2,16.332-7.8l.677,1.348C363.89,295.551,358.375,298.188,352.673,300.77ZM385.1,284.375l-.732-1.311c5.442-3.094,10.62-6.266,15.428-9.422l.828,1.26C395.782,278.08,390.564,281.266,385.1,284.375ZM415.385,264.3l-.934-1.165a164.957,164.957,0,0,0,13.575-11.876l1.055,1.077a165.921,165.921,0,0,1-13.7,11.967Zm25.8-25.59-1.2-.919a108.968,108.968,0,0,0,9.73-15.106l1.333.707a110.906,110.906,0,0,1-9.865,15.318ZM458.2,206.624l-1.432-.476a129.931,129.931,0,0,0,4.394-17.468l1.483.271A131.883,131.883,0,0,1,458.2,206.624Z" transform="translate(-97.067 -119.586)"/><path class="j" d="M1002.611,123.107l-1.5-.146c.293-2.981.546-5.976.784-8.99l1.5.117Q1003.038,118.624,1002.611,123.107Z" transform="translate(-634.505 -72.234)"/><path class="k" d="M1437.27,524.24a5.813,5.813,0,0,1,2.563.469A5.147,5.147,0,0,1,1437.27,524.24Z" transform="translate(-910.944 -332.26)"/></g></g><g transform="translate(720 1638.055)"><line class="l" x1="16.595" y1="9.57" transform="translate(11.297 6.073)"/><path class="m" d="M36.19,27.813V13.062a3.688,3.688,0,0,0-1.844-3.19L21.439,2.5a3.688,3.688,0,0,0-3.688,0L4.844,9.872A3.688,3.688,0,0,0,3,13.062V27.813A3.688,3.688,0,0,0,4.844,31l12.907,7.376a3.688,3.688,0,0,0,3.688,0L34.346,31A3.688,3.688,0,0,0,36.19,27.813Z" transform="translate(0 0)"/><path class="n" d="M3.27,6.96l16.1,9.312,16.1-9.312" transform="translate(0.228 4.184)"/><line class="o" y1="18.586" transform="translate(19.595 20.437)"/></g><g transform="translate(762 1454.055)"><line class="l" x1="16.595" y1="9.57" transform="translate(11.297 6.073)"/><path class="m" d="M36.19,27.813V13.062a3.688,3.688,0,0,0-1.844-3.19L21.439,2.5a3.688,3.688,0,0,0-3.688,0L4.844,9.872A3.688,3.688,0,0,0,3,13.062V27.813A3.688,3.688,0,0,0,4.844,31l12.907,7.376a3.688,3.688,0,0,0,3.688,0L34.346,31A3.688,3.688,0,0,0,36.19,27.813Z" transform="translate(0 0)"/><path class="n" d="M3.27,6.96l16.1,9.312,16.1-9.312" transform="translate(0.228 4.184)"/><line class="o" y1="18.586" transform="translate(19.595 20.437)"/></g><g transform="translate(873 1507.055)"><line class="l" x1="16.595" y1="9.57" transform="translate(11.297 6.073)"/><path class="m" d="M36.19,27.813V13.062a3.688,3.688,0,0,0-1.844-3.19L21.439,2.5a3.688,3.688,0,0,0-3.688,0L4.844,9.872A3.688,3.688,0,0,0,3,13.062V27.813A3.688,3.688,0,0,0,4.844,31l12.907,7.376a3.688,3.688,0,0,0,3.688,0L34.346,31A3.688,3.688,0,0,0,36.19,27.813Z" transform="translate(0 0)"/><path class="n" d="M3.27,6.96l16.1,9.312,16.1-9.312" transform="translate(0.228 4.184)"/><line class="o" y1="18.586" transform="translate(19.595 20.437)"/></g><g transform="translate(906 1728.055)"><line class="l" x1="16.595" y1="9.57" transform="translate(11.297 6.073)"/><path class="m" d="M36.19,27.813V13.062a3.688,3.688,0,0,0-1.844-3.19L21.439,2.5a3.688,3.688,0,0,0-3.688,0L4.844,9.872A3.688,3.688,0,0,0,3,13.062V27.813A3.688,3.688,0,0,0,4.844,31l12.907,7.376a3.688,3.688,0,0,0,3.688,0L34.346,31A3.688,3.688,0,0,0,36.19,27.813Z" transform="translate(0 0)"/><path class="n" d="M3.27,6.96l16.1,9.312,16.1-9.312" transform="translate(0.228 4.184)"/><line class="o" y1="18.586" transform="translate(19.595 20.437)"/></g><g transform="translate(1055 1709.055)"><line class="l" x1="16.595" y1="9.57" transform="translate(11.297 6.073)"/><path class="m" d="M36.19,27.813V13.062a3.688,3.688,0,0,0-1.844-3.19L21.439,2.5a3.688,3.688,0,0,0-3.688,0L4.844,9.872A3.688,3.688,0,0,0,3,13.062V27.813A3.688,3.688,0,0,0,4.844,31l12.907,7.376a3.688,3.688,0,0,0,3.688,0L34.346,31A3.688,3.688,0,0,0,36.19,27.813Z" transform="translate(0 0)"/><path class="n" d="M3.27,6.96l16.1,9.312,16.1-9.312" transform="translate(0.228 4.184)"/><line class="o" y1="18.586" transform="translate(19.595 20.437)"/></g><g transform="translate(962 1832.055)"><line class="l" x1="16.595" y1="9.57" transform="translate(11.297 6.073)"/><path class="m" d="M36.19,27.813V13.062a3.688,3.688,0,0,0-1.844-3.19L21.439,2.5a3.688,3.688,0,0,0-3.688,0L4.844,9.872A3.688,3.688,0,0,0,3,13.062V27.813A3.688,3.688,0,0,0,4.844,31l12.907,7.376a3.688,3.688,0,0,0,3.688,0L34.346,31A3.688,3.688,0,0,0,36.19,27.813Z" transform="translate(0 0)"/><path class="n" d="M3.27,6.96l16.1,9.312,16.1-9.312" transform="translate(0.228 4.184)"/><line class="o" y1="18.586" transform="translate(19.595 20.437)"/></g><g transform="translate(840 1619.055)"><line class="l" x1="16.595" y1="9.57" transform="translate(11.297 6.073)"/><path class="m" d="M36.19,27.813V13.062a3.688,3.688,0,0,0-1.844-3.19L21.439,2.5a3.688,3.688,0,0,0-3.688,0L4.844,9.872A3.688,3.688,0,0,0,3,13.062V27.813A3.688,3.688,0,0,0,4.844,31l12.907,7.376a3.688,3.688,0,0,0,3.688,0L34.346,31A3.688,3.688,0,0,0,36.19,27.813Z" transform="translate(0 0)"/><path class="n" d="M3.27,6.96l16.1,9.312,16.1-9.312" transform="translate(0.228 4.184)"/><line class="o" y1="18.586" transform="translate(19.595 20.437)"/></g><g transform="translate(737 1765.055)"><line class="l" x1="16.595" y1="9.57" transform="translate(11.297 6.073)"/><path class="m" d="M36.19,27.813V13.062a3.688,3.688,0,0,0-1.844-3.19L21.439,2.5a3.688,3.688,0,0,0-3.688,0L4.844,9.872A3.688,3.688,0,0,0,3,13.062V27.813A3.688,3.688,0,0,0,4.844,31l12.907,7.376a3.688,3.688,0,0,0,3.688,0L34.346,31A3.688,3.688,0,0,0,36.19,27.813Z" transform="translate(0 0)"/><path class="n" d="M3.27,6.96l16.1,9.312,16.1-9.312" transform="translate(0.228 4.184)"/><line class="o" y1="18.586" transform="translate(19.595 20.437)"/></g><g transform="translate(995 1435.055)"><line class="l" x1="16.595" y1="9.57" transform="translate(11.297 6.073)"/><path class="m" d="M36.19,27.813V13.062a3.688,3.688,0,0,0-1.844-3.19L21.439,2.5a3.688,3.688,0,0,0-3.688,0L4.844,9.872A3.688,3.688,0,0,0,3,13.062V27.813A3.688,3.688,0,0,0,4.844,31l12.907,7.376a3.688,3.688,0,0,0,3.688,0L34.346,31A3.688,3.688,0,0,0,36.19,27.813Z" transform="translate(0 0)"/><path class="n" d="M3.27,6.96l16.1,9.312,16.1-9.312" transform="translate(0.228 4.184)"/><line class="o" y1="18.586" transform="translate(19.595 20.437)"/></g><g transform="translate(1128 1615.055)"><line class="l" x1="16.595" y1="9.57" transform="translate(11.297 6.073)"/><path class="m" d="M36.19,27.813V13.062a3.688,3.688,0,0,0-1.844-3.19L21.439,2.5a3.688,3.688,0,0,0-3.688,0L4.844,9.872A3.688,3.688,0,0,0,3,13.062V27.813A3.688,3.688,0,0,0,4.844,31l12.907,7.376a3.688,3.688,0,0,0,3.688,0L34.346,31A3.688,3.688,0,0,0,36.19,27.813Z" transform="translate(0 0)"/><path class="n" d="M3.27,6.96l16.1,9.312,16.1-9.312" transform="translate(0.228 4.184)"/><line class="o" y1="18.586" transform="translate(19.595 20.437)"/></g><g transform="translate(986 1552.055)"><line class="l" x1="16.595" y1="9.57" transform="translate(11.297 6.073)"/><path class="m" d="M36.19,27.813V13.062a3.688,3.688,0,0,0-1.844-3.19L21.439,2.5a3.688,3.688,0,0,0-3.688,0L4.844,9.872A3.688,3.688,0,0,0,3,13.062V27.813A3.688,3.688,0,0,0,4.844,31l12.907,7.376a3.688,3.688,0,0,0,3.688,0L34.346,31A3.688,3.688,0,0,0,36.19,27.813Z" transform="translate(0 0)"/><path class="n" d="M3.27,6.96l16.1,9.312,16.1-9.312" transform="translate(0.228 4.184)"/><line class="o" y1="18.586" transform="translate(19.595 20.437)"/></g></g></g></svg>