<svg xmlns="http://www.w3.org/2000/svg" xmlns:xlink="http://www.w3.org/1999/xlink" width="319" height="174" viewBox="0 0 319 174"><defs><style>.a{fill:url(#a);}.b,.f{fill:orange;}.c,.d{fill:#fff;}.d{opacity:0.31;}.e,.f{stroke:none;}</style><linearGradient id="a" x1="1.181" x2="-0.146" y2="1.45" gradientUnits="objectBoundingBox"><stop offset="0" stop-color="#2eb4b3"/><stop offset="1" stop-color="#175a5a"/></linearGradient></defs><g transform="translate(-29 -112)"><rect class="a" width="319" height="174" rx="18" transform="translate(29 112)"/><g class="b" transform="translate(321 -2395)"><path class="e" d="M -47.49999618530273 2540.500244140625 C -58.21227264404297 2540.500244140625 -68.48553466796875 2537.229248046875 -77.20916748046875 2531.041015625 C -81.41152191162109 2528.059814453125 -85.1417236328125 2524.47509765625 -88.29615783691406 2520.386474609375 C -91.33316040039063 2516.450439453125 -93.78081512451172 2512.117919921875 -95.57784271240234 2507.49951171875 L 0.5778478384017944 2507.49951171875 C -1.219019651412964 2512.117431640625 -3.666666984558105 2516.449951171875 -6.70383358001709 2520.386474609375 C -9.858233451843262 2524.47509765625 -13.58843326568604 2528.059814453125 -17.79080963134766 2531.041015625 C -26.51447105407715 2537.229248046875 -36.78773498535156 2540.500244140625 -47.49999618530273 2540.500244140625 Z"/><path class="f" d="M -47.49999618530273 2540.000244140625 C -36.8919677734375 2540.000244140625 -26.71872901916504 2536.76123046875 -18.08011627197266 2530.633056640625 C -13.9181957244873 2527.6806640625 -10.22384929656982 2524.130615234375 -7.099689483642578 2520.0810546875 C -4.24152135848999 2516.37646484375 -1.9106125831604 2512.318359375 -0.1588243842124939 2507.99951171875 L -94.84117889404297 2507.99951171875 C -93.08924865722656 2512.318603515625 -90.75830078125 2516.376953125 -87.90027618408203 2520.0810546875 C -84.77615356445313 2524.13037109375 -81.08182525634766 2527.6806640625 -76.91987609863281 2530.633056640625 C -68.28127288818359 2536.76123046875 -58.10803604125977 2540.000244140625 -47.49999618530273 2540.000244140625 M -47.49999618530273 2541.000244140625 C -58.31668853759766 2541.000244140625 -68.68997955322266 2537.697265625 -77.49846649169922 2531.44873046875 C -81.74090576171875 2528.439208984375 -85.50697326660156 2524.8203125 -88.69203948974609 2520.69189453125 C -91.90728759765625 2516.52490234375 -94.46813201904297 2511.91796875 -96.30345916748047 2506.99951171875 L 1.303470492362976 2506.99951171875 C -0.5322495102882385 2511.9189453125 -3.093329429626465 2516.525390625 -6.307956218719482 2520.69189453125 C -9.493022918701172 2524.8203125 -13.25907611846924 2528.439208984375 -17.50152969360352 2531.44873046875 C -26.31002235412598 2537.697265625 -36.68331527709961 2541.000244140625 -47.49999618530273 2541.000244140625 Z"/></g><g transform="translate(238 232.628)"><path class="c" d="M15.36,6.464l2.483,2.588L21.306,0,9.231.079,11.461,2.4,5.609,7.1V.038H0V14.529a5.609,5.609,0,0,0,5.609,5.609V13.147h0v.007l.716.573L22.258,26.5l3.512-4.374L10.8,10.124Z"/><path class="c" d="M93.992,29.106a3.376,3.376,0,0,1-.783,2.431,2.779,2.779,0,0,1-2.092.809,2.574,2.574,0,0,1-1.882-.692,2.652,2.652,0,0,1-.716-2v-7.6H85.16v8.023a5.462,5.462,0,0,0,1.4,3.971A4.728,4.728,0,0,0,90.1,35.476a4.356,4.356,0,0,0,3.894-1.829v1.464h3.371V22.05H93.992Z" transform="translate(-64.826 -16.785)"/><path class="c" d="M153.835,29.106a3.369,3.369,0,0,1-.786,2.431,2.777,2.777,0,0,1-2.08.809,2.572,2.572,0,0,1-1.882-.692,2.653,2.653,0,0,1-.716-2v-7.6H145v8.023a5.456,5.456,0,0,0,1.4,3.971,4.721,4.721,0,0,0,3.541,1.433,4.356,4.356,0,0,0,3.894-1.829v1.464H157.2V22.05h-3.369Z" transform="translate(-110.378 -16.785)"/><path class="c" d="M214.078,24.29V22.05h-9.79v3.161h5.253l-5.511,7.66v2.244h10.3V31.954h-5.8Z" transform="translate(-155.313 -16.785)"/><path class="c" d="M261.468,24.29V22.05h-9.79v3.161h5.253l-5.511,7.66v2.244h10.3V31.954h-5.8Z" transform="translate(-191.388 -16.785)"/><path class="c" d="M306.112,20.869v1.54a5.126,5.126,0,0,0-4.257-1.91,5.917,5.917,0,0,0-4.482,2,6.905,6.905,0,0,0-1.87,4.9,6.905,6.905,0,0,0,1.87,4.9,5.917,5.917,0,0,0,4.482,2,5.122,5.122,0,0,0,4.257-1.91v1.542h3.371V20.869Zm-1.031,9.186a3.524,3.524,0,0,1-2.6,1.032,3.477,3.477,0,0,1-2.586-1.032,3.961,3.961,0,0,1,0-5.306,3.477,3.477,0,0,1,2.586-1.027,3.524,3.524,0,0,1,2.6,1.032,3.921,3.921,0,0,1,0,5.3Z" transform="translate(-224.943 -15.605)"/></g><path class="d" d="M34.849,14.665l5.634,5.872L48.338,0l-27.4.179L26,5.45,12.725,16.111V.087H0V32.964A12.725,12.725,0,0,0,12.725,45.689V29.827h0v.016l1.625,1.3L50.5,60.132l7.969-9.924L24.508,22.969Z" transform="translate(251 169)"/></g></svg>