<svg xmlns="http://www.w3.org/2000/svg" width="39.009" height="38.943" viewBox="0 0 39.009 38.943"><defs><style>.a{fill:none;stroke:#029b97;stroke-linecap:round;stroke-linejoin:round;stroke-width:3px;}.b,.d{fill:#029b97;}.b{fill-rule:evenodd;}.c,.d{stroke:none;}</style></defs><g transform="translate(-667.5 -1745.5)"><g transform="translate(666 1743.936)"><circle class="a" cx="15.5" cy="15.5" r="15.5" transform="translate(3 3.064)"/><line class="a" x1="8.552" y1="8.552" transform="translate(29.836 29.833)"/></g><g transform="translate(731 1730)"><g class="b" transform="translate(-57 21.789)"><path class="c" d="M 15.0986967086792 18.33642196655273 C 14.33080673217773 18.33642196655273 13.70607662200928 17.71169281005859 13.70607662200928 16.94380187988281 C 13.70607662200928 16.17591285705566 14.33080673217773 15.55119228363037 15.0986967086792 15.55119228363037 C 15.86658668518066 15.55119228363037 16.4913158416748 16.17591285705566 16.4913158416748 16.94380187988281 C 16.4913158416748 17.71169281005859 15.86658668518066 18.33642196655273 15.0986967086792 18.33642196655273 Z M 6.647896289825439 18.33642196655273 C 5.880006313323975 18.33642196655273 5.255276203155518 17.71169281005859 5.255276203155518 16.94380187988281 C 5.255276203155518 16.17591285705566 5.880006313323975 15.55119228363037 6.647896289825439 15.55119228363037 C 7.415786266326904 15.55119228363037 8.040515899658203 16.17591285705566 8.040515899658203 16.94380187988281 C 8.040515899658203 17.71169281005859 7.415786266326904 18.33642196655273 6.647896289825439 18.33642196655273 Z M 14.67598628997803 14.1110315322876 L 7.070266246795654 14.1110315322876 C 6.634256362915039 14.1110315322876 6.249336242675781 13.81707191467285 6.134196281433105 13.3961820602417 L 3.793907403945923 4.81516170501709 L 2.844866275787354 4.81516170501709 C 2.309966325759888 4.81516170501709 1.874786376953125 4.379981994628906 1.874786376953125 3.84508204460144 C 1.874786376953125 3.310181856155396 2.309966325759888 2.875001907348633 2.844866275787354 2.875001907348633 L 4.535026550292969 2.875001907348633 C 4.971036434173584 2.875001907348633 5.355966567993164 3.168951988220215 5.471096515655518 3.589841842651367 L 5.967429637908936 5.410242080688477 L 16.68896675109863 5.410242080688477 C 17.32277679443359 5.410242080688477 17.89990615844727 5.731902122497559 18.23278617858887 6.270671844482422 C 18.56628608703613 6.810451984405518 18.59611701965332 7.470711708068848 18.31258583068848 8.036862373352051 L 15.54414653778076 13.57459163665771 C 15.37817668914795 13.90553188323975 15.04554653167725 14.1110315322876 14.67598628997803 14.1110315322876 Z M 7.811368465423584 12.17087173461914 L 14.07647609710693 12.17087173461914 L 16.48671722412109 7.350391864776611 L 6.496176719665527 7.350391864776611 L 7.811368465423584 12.17087173461914 Z"/><path class="d" d="M 15.0986967086792 18.21142196655273 C 15.79841613769531 18.21142196655273 16.3663158416748 17.64438247680664 16.3663158416748 16.94380187988281 C 16.3663158416748 16.24323272705078 15.79841613769531 15.67619228363037 15.0986967086792 15.67619228363037 C 14.39896678924561 15.67619228363037 13.83107662200928 16.24323272705078 13.83107662200928 16.94380187988281 C 13.83107662200928 17.64438247680664 14.39896678924561 18.21142196655273 15.0986967086792 18.21142196655273 M 6.647896289825439 18.21142196655273 C 7.347616195678711 18.21142196655273 7.915516376495361 17.64438247680664 7.915516376495361 16.94380187988281 C 7.915516376495361 16.24323272705078 7.347616195678711 15.67619228363037 6.647896289825439 15.67619228363037 C 5.948166370391846 15.67619228363037 5.380276203155518 16.24323272705078 5.380276203155518 16.94380187988281 C 5.380276203155518 17.64438247680664 5.948166370391846 18.21142196655273 6.647896289825439 18.21142196655273 M 14.67598628997803 13.9860315322876 C 14.99626636505127 13.9860315322876 15.28866672515869 13.8051815032959 15.43233680725098 13.51870155334473 L 18.2008171081543 7.980891704559326 C 18.4653263092041 7.452722072601318 18.43658638000488 6.838351726531982 18.12644577026367 6.336371898651123 C 17.8162956237793 5.834392070770264 17.2788257598877 5.535242080688477 16.68896675109863 5.535242080688477 L 5.871946334838867 5.535242080688477 L 5.350526332855225 3.622822046279907 C 5.249966144561768 3.25521183013916 4.91615629196167 3.000001907348633 4.535026550292969 3.000001907348633 L 2.844866275787354 3.000001907348633 C 2.377536296844482 3.000001907348633 1.999786376953125 3.378592014312744 1.999786376953125 3.84508204460144 C 1.999786376953125 4.311562061309814 2.377536296844482 4.69016170501709 2.844866275787354 4.69016170501709 L 3.889386415481567 4.69016170501709 L 6.254766464233398 13.36320209503174 C 6.355326175689697 13.73081207275391 6.689136505126953 13.9860315322876 7.070266246795654 13.9860315322876 L 14.67598628997803 13.9860315322876 M 6.33250617980957 7.225391864776611 L 16.68896675109863 7.225391864776611 L 14.15372657775879 12.29587173461914 L 7.715906143188477 12.29587173461914 L 6.33250617980957 7.225391864776611 M 15.0986967086792 18.46142196655273 C 14.26187610626221 18.46142196655273 13.58107662200928 17.7806224822998 13.58107662200928 16.94380187988281 C 13.58107662200928 16.10699272155762 14.26187610626221 15.42619228363037 15.0986967086792 15.42619228363037 C 15.93551635742188 15.42619228363037 16.6163158416748 16.10699272155762 16.6163158416748 16.94380187988281 C 16.6163158416748 17.7806224822998 15.93551635742188 18.46142196655273 15.0986967086792 18.46142196655273 Z M 6.647896289825439 18.46142196655273 C 5.811076164245605 18.46142196655273 5.130276203155518 17.7806224822998 5.130276203155518 16.94380187988281 C 5.130276203155518 16.10699272155762 5.811076164245605 15.42619228363037 6.647896289825439 15.42619228363037 C 7.484716415405273 15.42619228363037 8.165515899658203 16.10699272155762 8.165515899658203 16.94380187988281 C 8.165515899658203 17.7806224822998 7.484716415405273 18.46142196655273 6.647896289825439 18.46142196655273 Z M 14.67598628997803 14.2360315322876 L 7.070266246795654 14.2360315322876 C 6.578086376190186 14.2360315322876 6.143586158752441 13.90423202514648 6.013626575469971 13.42916202545166 L 3.698438405990601 4.94016170501709 L 2.844866275787354 4.94016170501709 C 2.241036415100098 4.94016170501709 1.749786376953125 4.448912143707275 1.749786376953125 3.84508204460144 C 1.749786376953125 3.241251945495605 2.241036415100098 2.750001907348633 2.844866275787354 2.750001907348633 L 4.535026550292969 2.750001907348633 C 5.027206420898438 2.750001907348633 5.461716175079346 3.081791877746582 5.591666221618652 3.556861877441406 L 6.062912940979004 5.285242080688477 L 16.68896675109863 5.285242080688477 C 17.36641693115234 5.285242080688477 17.98330688476563 5.629061698913574 18.33912658691406 6.204971790313721 C 18.69557571411133 6.781901836395264 18.72743606567383 7.48764181137085 18.42434692382813 8.092842102050781 L 15.65594673156738 13.63049221038818 C 15.46857643127441 14.00411224365234 15.09313678741455 14.2360315322876 14.67598628997803 14.2360315322876 Z M 7.906830310821533 12.04587173461914 L 13.99921607971191 12.04587173461914 L 16.28445625305176 7.475391864776611 L 6.659847259521484 7.475391864776611 L 7.906830310821533 12.04587173461914 Z"/></g></g></g></svg>