<svg width="14" height="14" viewBox="0 0 14 14" fill="none" xmlns="http://www.w3.org/2000/svg">
<g clip-path="url(#clip0_650_665)">
<path d="M4.375 12.6875C4.85825 12.6875 5.25 12.2957 5.25 11.8125C5.25 11.3293 4.85825 10.9375 4.375 10.9375C3.89175 10.9375 3.5 11.3293 3.5 11.8125C3.5 12.2957 3.89175 12.6875 4.375 12.6875Z" fill="#029B97"/>
<path d="M10.0625 12.6875C10.5457 12.6875 10.9375 12.2957 10.9375 11.8125C10.9375 11.3293 10.5457 10.9375 10.0625 10.9375C9.57925 10.9375 9.1875 11.3293 9.1875 11.8125C9.1875 12.2957 9.57925 12.6875 10.0625 12.6875Z" fill="#029B97"/>
<path d="M2.3125 3.9375H12.125L10.6813 8.99038C10.6291 9.17321 10.5187 9.33405 10.3669 9.44855C10.2151 9.56306 10.0301 9.625 9.83999 9.625H4.59751C4.40737 9.625 4.2224 9.56306 4.07059 9.44855C3.91879 9.33405 3.80842 9.17321 3.75618 8.99038L1.77816 2.06731C1.75204 1.97589 1.69685 1.89548 1.62095 1.83822C1.54505 1.78097 1.45257 1.75 1.35749 1.75H0.4375" stroke="#029B97" stroke-width="1.1" stroke-linecap="round" stroke-linejoin="round"/>
</g>
<defs>
<clipPath id="clip0_650_665">
<rect width="14" height="14" fill="white"/>
</clipPath>
</defs>
</svg>
