<svg width="25" height="26" viewBox="0 0 25 26" fill="none" xmlns="http://www.w3.org/2000/svg">
<g clip-path="url(#clip0)">
<path d="M6.60772 22.2494L7.01641 22.4538C8.71954 23.4756 10.6269 23.9524 12.5343 23.9524C18.5289 23.9524 23.4336 19.0478 23.4336 13.0531C23.4336 10.1921 22.2755 7.39912 20.2319 5.35547C18.1883 3.31182 15.4634 2.15381 12.5343 2.15381C6.53965 2.15381 1.63487 7.0585 1.70303 13.1213C1.70303 15.1648 2.31612 17.1404 3.3379 18.8434L3.61036 19.2521L2.52051 23.2713L6.60772 22.2494Z" fill="#00E676"/>
<path d="M21.3899 4.26543C19.0738 1.88125 15.8722 0.586914 12.6023 0.586914C5.6541 0.586914 0.0681641 6.24092 0.13623 13.1211C0.13623 15.301 0.749316 17.4128 1.77119 19.3201L0 25.7916L6.60771 24.0886C8.44697 25.1104 10.4905 25.5873 12.5343 25.5873C19.4145 25.5873 25.0004 19.9332 25.0004 13.0531C25.0004 9.71514 23.7061 6.58154 21.39 4.26543H21.3899ZM12.6023 23.4756C10.7631 23.4756 8.92383 22.9988 7.35703 22.0451L6.94834 21.8407L2.99736 22.8625L4.01914 18.9797L3.74668 18.5709C0.749316 13.7344 2.17988 7.33086 7.08457 4.3335C11.9893 1.33623 18.3245 2.7668 21.3219 7.67148C24.3191 12.5762 22.8886 18.9114 17.984 21.9088C16.4171 22.9306 14.5098 23.4755 12.6023 23.4755V23.4756ZM18.597 15.9143L17.8477 15.5736C17.8477 15.5736 16.7578 15.0968 16.0766 14.7562C16.0084 14.7562 15.9403 14.688 15.8722 14.688C15.6678 14.688 15.5315 14.7562 15.3953 14.8243C15.3953 14.8243 15.3272 14.8924 14.3735 15.9823C14.3054 16.1186 14.1691 16.1867 14.0329 16.1867H13.9647C13.8967 16.1867 13.7604 16.1186 13.6923 16.0505L13.3517 15.9143C12.6023 15.5736 11.9212 15.1648 11.3762 14.6199C11.2399 14.4837 11.0355 14.3475 10.8993 14.2112C10.4225 13.7344 9.94561 13.1894 9.60508 12.5763L9.53691 12.44C9.46885 12.3719 9.46885 12.3038 9.40068 12.1676C9.40068 12.0313 9.40068 11.8951 9.46885 11.827C9.46885 11.827 9.74131 11.4863 9.94561 11.282C10.0819 11.1457 10.15 10.9414 10.2862 10.8052C10.4225 10.6008 10.4906 10.3283 10.4225 10.1239C10.3544 9.7833 9.53691 7.94404 9.33262 7.53535C9.19629 7.33096 9.06016 7.26289 8.85576 7.19473H8.10645C7.97012 7.19473 7.83398 7.26289 7.69766 7.26289L7.62949 7.33096C7.49326 7.39912 7.35703 7.53535 7.2208 7.60342C7.08457 7.73975 7.01641 7.87588 6.88018 8.01221C6.40332 8.62529 6.13086 9.37461 6.13086 10.1239C6.13086 10.6688 6.26709 11.2139 6.47148 11.6907L6.53965 11.8951C7.15273 13.1894 7.97012 14.3475 9.06016 15.3692L9.33262 15.6417C9.53691 15.8461 9.74131 15.9823 9.87754 16.1866C11.3081 17.4129 12.943 18.2984 14.7822 18.7753C14.9866 18.8434 15.2591 18.8434 15.4635 18.9115H16.1446C16.4853 18.9115 16.8939 18.7753 17.1665 18.6391C17.3708 18.5028 17.507 18.5028 17.6433 18.3666L17.7796 18.2303C17.9158 18.094 18.052 18.026 18.1883 17.8897C18.3245 17.7535 18.4607 17.6173 18.5289 17.481C18.6651 17.2085 18.7332 16.8679 18.8014 16.5273V16.0505C18.8014 16.0505 18.7332 15.9823 18.597 15.9143Z" fill="white"/>
</g>
<defs>
<clipPath id="clip0">
<rect width="25" height="25.293" fill="white" transform="translate(0 0.586914)"/>
</clipPath>
</defs>
</svg>
